<?xml version="1.0" encoding="UTF-8" standalone="no"?>
<!-- Created with Inkscape (http://www.inkscape.org/) -->

<svg
   xmlns:dc="http://purl.org/dc/elements/1.1/"
   xmlns:cc="http://creativecommons.org/ns#"
   xmlns:rdf="http://www.w3.org/1999/02/22-rdf-syntax-ns#"
   xmlns:svg="http://www.w3.org/2000/svg"
   xmlns="http://www.w3.org/2000/svg"
   xmlns:sodipodi="http://sodipodi.sourceforge.net/DTD/sodipodi-0.dtd"
   xmlns:inkscape="http://www.inkscape.org/namespaces/inkscape"
   width="480"
   height="320"
   id="svg3820"
   version="1.1"
   inkscape:version="0.48.4 r9939"
   sodipodi:docname="backgroundnear.svg"
   inkscape:export-filename="C:\Programming\games\runner\img\backgroundnear.png"
   inkscape:export-xdpi="90"
   inkscape:export-ydpi="90">
  <defs
     id="defs3822" />
  <sodipodi:namedview
     id="base"
     pagecolor="#ffffff"
     bordercolor="#666666"
     borderopacity="1.0"
     inkscape:pageopacity="0.0"
     inkscape:pageshadow="2"
     inkscape:zoom="0.7"
     inkscape:cx="215.24772"
     inkscape:cy="-10.634237"
     inkscape:document-units="px"
     inkscape:current-layer="layer1"
     showgrid="false"
     inkscape:window-width="1366"
     inkscape:window-height="706"
     inkscape:window-x="-8"
     inkscape:window-y="-8"
     inkscape:window-maximized="1" />
  <metadata
     id="metadata3825">
    <rdf:RDF>
      <cc:Work
         rdf:about="">
        <dc:format>image/svg+xml</dc:format>
        <dc:type
           rdf:resource="http://purl.org/dc/dcmitype/StillImage" />
        <dc:title></dc:title>
      </cc:Work>
    </rdf:RDF>
  </metadata>
  <g
     inkscape:label="Layer 1"
     inkscape:groupmode="layer"
     id="layer1"
     transform="translate(0,-732.36218)">
    <rect
       style="fill:#552200;fill-opacity:1;stroke:none"
       id="rect4373"
       width="27.466232"
       height="60.11702"
       x="55.303841"
       y="991.37317" />
    <g
       id="g4389"
       transform="matrix(1.0534993,0,0,1.4765583,-56.442334,-452.2863)">
      <path
         transform="translate(-16.428571,721.64789)"
         d="m 121.21434,244.28572 c 0,13.94521 -11.30483,25.25003 -25.25003,25.25003 -13.945205,0 -25.250027,-11.30482 -25.250027,-25.25003 0,-13.9452 11.304822,-25.25003 25.250027,-25.25003 13.9452,0 25.25003,11.30483 25.25003,25.25003 z"
         sodipodi:ry="25.250027"
         sodipodi:rx="25.250027"
         sodipodi:cy="244.28572"
         sodipodi:cx="95.96431"
         id="path4383"
         style="fill:#008000;fill-opacity:1;stroke:none"
         sodipodi:type="arc" />
      <path
         sodipodi:type="arc"
         style="fill:#008000;fill-opacity:1;stroke:none"
         id="path4385"
         sodipodi:cx="95.96431"
         sodipodi:cy="244.28572"
         sodipodi:rx="25.250027"
         sodipodi:ry="25.250027"
         d="m 121.21434,244.28572 c 0,13.94521 -11.30483,25.25003 -25.25003,25.25003 -13.945205,0 -25.250027,-11.30482 -25.250027,-25.25003 0,-13.9452 11.304822,-25.25003 25.250027,-25.25003 13.9452,0 25.25003,11.30483 25.25003,25.25003 z"
         transform="translate(60.714286,720.9336)" />
      <path
         transform="translate(24.285715,720.21931)"
         d="m 121.21434,244.28572 c 0,13.94521 -11.30483,25.25003 -25.25003,25.25003 -13.945205,0 -25.250027,-11.30482 -25.250027,-25.25003 0,-13.9452 11.304822,-25.25003 25.250027,-25.25003 13.9452,0 25.25003,11.30483 25.25003,25.25003 z"
         sodipodi:ry="25.250027"
         sodipodi:rx="25.250027"
         sodipodi:cy="244.28572"
         sodipodi:cx="95.96431"
         id="path4387"
         style="fill:#008000;fill-opacity:1;stroke:none"
         sodipodi:type="arc" />
    </g>
    <g
       id="g4471"
       transform="matrix(1.0534993,0,0,1.4765583,-56.442334,-452.2863)">
      <g
         style="fill:#00ff00"
         transform="matrix(1,0,0,0.82118316,0,167.95461)"
         id="g4394">
        <path
           transform="translate(-16.428571,721.64789)"
           d="m 121.21434,244.28572 c 0,13.94521 -11.30483,25.25003 -25.25003,25.25003 -13.945205,0 -25.250027,-11.30482 -25.250027,-25.25003 0,-13.9452 11.304822,-25.25003 25.250027,-25.25003 13.9452,0 25.25003,11.30483 25.25003,25.25003 z"
           sodipodi:ry="25.250027"
           sodipodi:rx="25.250027"
           sodipodi:cy="244.28572"
           sodipodi:cx="95.96431"
           id="path4396"
           style="fill:#00ff00;fill-opacity:1;stroke:none"
           sodipodi:type="arc" />
        <path
           sodipodi:type="arc"
           style="fill:#00ff00;fill-opacity:1;stroke:none"
           id="path4398"
           sodipodi:cx="95.96431"
           sodipodi:cy="244.28572"
           sodipodi:rx="25.250027"
           sodipodi:ry="25.250027"
           d="m 121.21434,244.28572 c 0,13.94521 -11.30483,25.25003 -25.25003,25.25003 -13.945205,0 -25.250027,-11.30482 -25.250027,-25.25003 0,-13.9452 11.304822,-25.25003 25.250027,-25.25003 13.9452,0 25.25003,11.30483 25.25003,25.25003 z"
           transform="translate(60.714286,720.9336)" />
        <path
           transform="translate(24.285715,720.21931)"
           d="m 121.21434,244.28572 c 0,13.94521 -11.30483,25.25003 -25.25003,25.25003 -13.945205,0 -25.250027,-11.30482 -25.250027,-25.25003 0,-13.9452 11.304822,-25.25003 25.250027,-25.25003 13.9452,0 25.25003,11.30483 25.25003,25.25003 z"
           sodipodi:ry="25.250027"
           sodipodi:rx="25.250027"
           sodipodi:cy="244.28572"
           sodipodi:cx="95.96431"
           id="path4400"
           style="fill:#00ff00;fill-opacity:1;stroke:none"
           sodipodi:type="arc" />
      </g>
      <path
         transform="translate(0,732.36218)"
         d="m 122.5018,200.53572 c 0,8.77738 -11.51308,15.89286 -25.715187,15.89286 -14.202103,0 -25.715183,-7.11548 -25.715183,-15.89286 0,-8.77738 11.51308,-15.89286 25.715183,-15.89286 14.202107,0 25.715187,7.11548 25.715187,15.89286 z"
         sodipodi:ry="15.892858"
         sodipodi:rx="25.715183"
         sodipodi:cy="200.53572"
         sodipodi:cx="96.786613"
         id="path4412"
         style="fill:#00ff00;fill-opacity:1;stroke:none"
         sodipodi:type="arc" />
      <path
         sodipodi:type="arc"
         style="fill:#00ff00;fill-opacity:1;stroke:none"
         id="path4414"
         sodipodi:cx="96.786613"
         sodipodi:cy="200.53572"
         sodipodi:rx="25.715183"
         sodipodi:ry="15.892858"
         d="m 122.5018,200.53572 c 0,8.77738 -11.51308,15.89286 -25.715187,15.89286 -14.202103,0 -25.715183,-7.11548 -25.715183,-15.89286 0,-8.77738 11.51308,-15.89286 25.715183,-15.89286 14.202107,0 25.715187,7.11548 25.715187,15.89286 z"
         transform="translate(42.857143,733.43361)" />
      <path
         transform="translate(16.428572,717.71932)"
         d="m 122.5018,200.53572 c 0,8.77738 -11.51308,15.89286 -25.715187,15.89286 -14.202103,0 -25.715183,-7.11548 -25.715183,-15.89286 0,-8.77738 11.51308,-15.89286 25.715183,-15.89286 14.202107,0 25.715187,7.11548 25.715187,15.89286 z"
         sodipodi:ry="15.892858"
         sodipodi:rx="25.715183"
         sodipodi:cy="200.53572"
         sodipodi:cx="96.786613"
         id="path4418"
         style="fill:#00ff00;fill-opacity:1;stroke:none"
         sodipodi:type="arc" />
      <path
         sodipodi:type="arc"
         style="fill:#00ff00;fill-opacity:1;stroke:none"
         id="path4420"
         sodipodi:cx="96.786613"
         sodipodi:cy="200.53572"
         sodipodi:rx="25.715183"
         sodipodi:ry="15.892858"
         d="m 122.5018,200.53572 c 0,8.77738 -11.51308,15.89286 -25.715187,15.89286 -14.202103,0 -25.715183,-7.11548 -25.715183,-15.89286 0,-8.77738 11.51308,-15.89286 25.715183,-15.89286 14.202107,0 25.715187,7.11548 25.715187,15.89286 z"
         transform="translate(30.000001,717.71932)" />
      <path
         transform="matrix(0.62501309,0,0,1,58.436571,701.64789)"
         d="m 122.5018,200.53572 c 0,8.77738 -11.51308,15.89286 -25.715187,15.89286 -14.202103,0 -25.715183,-7.11548 -25.715183,-15.89286 0,-8.77738 11.51308,-15.89286 25.715183,-15.89286 14.202107,0 25.715187,7.11548 25.715187,15.89286 z"
         sodipodi:ry="15.892858"
         sodipodi:rx="25.715183"
         sodipodi:cy="200.53572"
         sodipodi:cx="96.786613"
         id="path4422"
         style="fill:#00ff00;fill-opacity:1;stroke:none"
         sodipodi:type="arc" />
    </g>
    <g
       id="g4464"
       style="stroke:none"
       transform="matrix(1.0534993,0,0,1.4765583,-56.442338,-450.17693)">
      <path
         transform="translate(-8.5714286,732.00504)"
         d="m 134.28571,168.03572 c 0,5.81872 -4.717,10.53571 -10.53571,10.53571 -5.81871,0 -10.53571,-4.71699 -10.53571,-10.53571 0,-5.81871 4.717,-10.53571 10.53571,-10.53571 5.81871,0 10.53571,4.717 10.53571,10.53571 z"
         sodipodi:ry="10.535714"
         sodipodi:rx="10.535714"
         sodipodi:cy="168.03572"
         sodipodi:cx="123.75"
         id="path4454"
         style="fill:#ffffff;fill-opacity:0.58823529;stroke:none"
         sodipodi:type="arc" />
      <path
         sodipodi:type="arc"
         style="fill:#ffffff;fill-opacity:0.58823529;stroke:none"
         id="path4456"
         sodipodi:cx="123.75"
         sodipodi:cy="168.03572"
         sodipodi:rx="10.535714"
         sodipodi:ry="10.535714"
         d="m 134.28571,168.03572 c 0,5.81872 -4.717,10.53571 -10.53571,10.53571 -5.81871,0 -10.53571,-4.71699 -10.53571,-10.53571 0,-5.81871 4.717,-10.53571 10.53571,-10.53571 5.81871,0 10.53571,4.717 10.53571,10.53571 z"
         transform="matrix(0.49152542,0,0,0.49152542,42.566587,827.80407)" />
      <path
         transform="matrix(0.33898304,0,0,0.33898304,86.97942,854.3295)"
         d="m 134.28571,168.03572 c 0,5.81872 -4.717,10.53571 -10.53571,10.53571 -5.81871,0 -10.53571,-4.71699 -10.53571,-10.53571 0,-5.81871 4.717,-10.53571 10.53571,-10.53571 5.81871,0 10.53571,4.717 10.53571,10.53571 z"
         sodipodi:ry="10.535714"
         sodipodi:rx="10.535714"
         sodipodi:cy="168.03572"
         sodipodi:cx="123.75"
         id="path4458"
         style="fill:#ffffff;fill-opacity:0.58823529;stroke:none"
         sodipodi:type="arc" />
      <path
         sodipodi:type="arc"
         style="fill:#ffffff;fill-opacity:0.58823529;stroke:none"
         id="path4460"
         sodipodi:cx="123.75"
         sodipodi:cy="168.03572"
         sodipodi:rx="10.535714"
         sodipodi:ry="10.535714"
         d="m 134.28571,168.03572 c 0,5.81872 -4.717,10.53571 -10.53571,10.53571 -5.81871,0 -10.53571,-4.71699 -10.53571,-10.53571 0,-5.81871 4.717,-10.53571 10.53571,-10.53571 5.81871,0 10.53571,4.717 10.53571,10.53571 z"
         transform="matrix(0.20338982,0,0,0.20338982,86.973367,887.114)" />
      <path
         transform="matrix(0.20338982,0,0,0.20338982,67.687653,883.54257)"
         d="m 134.28571,168.03572 c 0,5.81872 -4.717,10.53571 -10.53571,10.53571 -5.81871,0 -10.53571,-4.71699 -10.53571,-10.53571 0,-5.81871 4.717,-10.53571 10.53571,-10.53571 5.81871,0 10.53571,4.717 10.53571,10.53571 z"
         sodipodi:ry="10.535714"
         sodipodi:rx="10.535714"
         sodipodi:cy="168.03572"
         sodipodi:cx="123.75"
         id="path4462"
         style="fill:#ffffff;fill-opacity:0.58823529;stroke:none"
         sodipodi:type="arc" />
    </g>
    <g
       id="g4446"
       transform="matrix(1.0534993,0,0,1.4765583,-57.194832,-453.86833)">
      <path
         transform="translate(4.6428572,734.50504)"
         d="m 141.07143,240.89285 c 0,3.45178 -2.79822,6.25 -6.25,6.25 -3.45178,0 -6.25,-2.79822 -6.25,-6.25 0,-3.45178 2.79822,-6.25 6.25,-6.25 3.45178,0 6.25,2.79822 6.25,6.25 z"
         sodipodi:ry="6.25"
         sodipodi:rx="6.25"
         sodipodi:cy="240.89285"
         sodipodi:cx="134.82143"
         id="path4402"
         style="fill:#008000;fill-opacity:1;stroke:none"
         sodipodi:type="arc" />
      <path
         sodipodi:type="arc"
         style="fill:#008000;fill-opacity:1;stroke:none"
         id="path4404"
         sodipodi:cx="134.82143"
         sodipodi:cy="240.89285"
         sodipodi:rx="6.25"
         sodipodi:ry="6.25"
         d="m 141.07143,240.89285 c 0,3.45178 -2.79822,6.25 -6.25,6.25 -3.45178,0 -6.25,-2.79822 -6.25,-6.25 0,-3.45178 2.79822,-6.25 6.25,-6.25 3.45178,0 6.25,2.79822 6.25,6.25 z"
         transform="translate(-34.285714,733.43361)" />
      <g
         style="fill:#008000"
         id="g4433">
        <path
           sodipodi:type="arc"
           style="fill:#008000;fill-opacity:1;stroke:none"
           id="path4406"
           sodipodi:cx="134.82143"
           sodipodi:cy="240.89285"
           sodipodi:rx="6.25"
           sodipodi:ry="6.25"
           d="m 141.07143,240.89285 c 0,3.45178 -2.79822,6.25 -6.25,6.25 -3.45178,0 -6.25,-2.79822 -6.25,-6.25 0,-3.45178 2.79822,-6.25 6.25,-6.25 3.45178,0 6.25,2.79822 6.25,6.25 z"
           transform="matrix(0.54285714,0,0,0.54285714,11.275509,829.27034)" />
        <path
           transform="matrix(0.54285714,0,0,0.54285714,76.275509,822.84177)"
           d="m 141.07143,240.89285 c 0,3.45178 -2.79822,6.25 -6.25,6.25 -3.45178,0 -6.25,-2.79822 -6.25,-6.25 0,-3.45178 2.79822,-6.25 6.25,-6.25 3.45178,0 6.25,2.79822 6.25,6.25 z"
           sodipodi:ry="6.25"
           sodipodi:rx="6.25"
           sodipodi:cy="240.89285"
           sodipodi:cx="134.82143"
           id="path4408"
           style="fill:#008000;fill-opacity:1;stroke:none"
           sodipodi:type="arc" />
        <path
           sodipodi:type="arc"
           style="fill:#008000;fill-opacity:1;stroke:none"
           id="path4410"
           sodipodi:cx="134.82143"
           sodipodi:cy="240.89285"
           sodipodi:rx="6.25"
           sodipodi:ry="6.25"
           d="m 141.07143,240.89285 c 0,3.45178 -2.79822,6.25 -6.25,6.25 -3.45178,0 -6.25,-2.79822 -6.25,-6.25 0,-3.45178 2.79822,-6.25 6.25,-6.25 3.45178,0 6.25,2.79822 6.25,6.25 z"
           transform="matrix(0.54285714,0,0,0.54285714,43.775509,818.9132)" />
      </g>
    </g>
    <rect
       y="956.99457"
       x="244.39879"
       height="94.813683"
       width="33.552448"
       id="rect4482"
       style="fill:#552200;fill-opacity:1;stroke:none" />
    <g
       transform="matrix(1.2869433,0,0,2.3287572,107.89088,-1319.8762)"
       id="g4484">
      <path
         sodipodi:type="arc"
         style="fill:#008000;fill-opacity:1;stroke:none"
         id="path4486"
         sodipodi:cx="95.96431"
         sodipodi:cy="244.28572"
         sodipodi:rx="25.250027"
         sodipodi:ry="25.250027"
         d="m 121.21434,244.28572 c 0,13.94521 -11.30483,25.25003 -25.25003,25.25003 -13.945205,0 -25.250027,-11.30482 -25.250027,-25.25003 0,-13.9452 11.304822,-25.25003 25.250027,-25.25003 13.9452,0 25.25003,11.30483 25.25003,25.25003 z"
         transform="translate(-16.428571,721.64789)" />
      <path
         transform="translate(60.714286,720.9336)"
         d="m 121.21434,244.28572 c 0,13.94521 -11.30483,25.25003 -25.25003,25.25003 -13.945205,0 -25.250027,-11.30482 -25.250027,-25.25003 0,-13.9452 11.304822,-25.25003 25.250027,-25.25003 13.9452,0 25.25003,11.30483 25.25003,25.25003 z"
         sodipodi:ry="25.250027"
         sodipodi:rx="25.250027"
         sodipodi:cy="244.28572"
         sodipodi:cx="95.96431"
         id="path4488"
         style="fill:#008000;fill-opacity:1;stroke:none"
         sodipodi:type="arc" />
      <path
         sodipodi:type="arc"
         style="fill:#008000;fill-opacity:1;stroke:none"
         id="path4490"
         sodipodi:cx="95.96431"
         sodipodi:cy="244.28572"
         sodipodi:rx="25.250027"
         sodipodi:ry="25.250027"
         d="m 121.21434,244.28572 c 0,13.94521 -11.30483,25.25003 -25.25003,25.25003 -13.945205,0 -25.250027,-11.30482 -25.250027,-25.25003 0,-13.9452 11.304822,-25.25003 25.250027,-25.25003 13.9452,0 25.25003,11.30483 25.25003,25.25003 z"
         transform="translate(24.285715,720.21931)" />
    </g>
    <g
       transform="matrix(1.2869433,0,0,2.3287572,107.89088,-1319.8762)"
       id="g4492">
      <g
         id="g4494"
         transform="matrix(1,0,0,0.82118316,0,167.95461)"
         style="fill:#00ff00">
        <path
           sodipodi:type="arc"
           style="fill:#00ff00;fill-opacity:1;stroke:none"
           id="path4496"
           sodipodi:cx="95.96431"
           sodipodi:cy="244.28572"
           sodipodi:rx="25.250027"
           sodipodi:ry="25.250027"
           d="m 121.21434,244.28572 c 0,13.94521 -11.30483,25.25003 -25.25003,25.25003 -13.945205,0 -25.250027,-11.30482 -25.250027,-25.25003 0,-13.9452 11.304822,-25.25003 25.250027,-25.25003 13.9452,0 25.25003,11.30483 25.25003,25.25003 z"
           transform="translate(-16.428571,721.64789)" />
        <path
           transform="translate(60.714286,720.9336)"
           d="m 121.21434,244.28572 c 0,13.94521 -11.30483,25.25003 -25.25003,25.25003 -13.945205,0 -25.250027,-11.30482 -25.250027,-25.25003 0,-13.9452 11.304822,-25.25003 25.250027,-25.25003 13.9452,0 25.25003,11.30483 25.25003,25.25003 z"
           sodipodi:ry="25.250027"
           sodipodi:rx="25.250027"
           sodipodi:cy="244.28572"
           sodipodi:cx="95.96431"
           id="path4498"
           style="fill:#00ff00;fill-opacity:1;stroke:none"
           sodipodi:type="arc" />
        <path
           sodipodi:type="arc"
           style="fill:#00ff00;fill-opacity:1;stroke:none"
           id="path4500"
           sodipodi:cx="95.96431"
           sodipodi:cy="244.28572"
           sodipodi:rx="25.250027"
           sodipodi:ry="25.250027"
           d="m 121.21434,244.28572 c 0,13.94521 -11.30483,25.25003 -25.25003,25.25003 -13.945205,0 -25.250027,-11.30482 -25.250027,-25.25003 0,-13.9452 11.304822,-25.25003 25.250027,-25.25003 13.9452,0 25.25003,11.30483 25.25003,25.25003 z"
           transform="translate(24.285715,720.21931)" />
      </g>
      <path
         sodipodi:type="arc"
         style="fill:#00ff00;fill-opacity:1;stroke:none"
         id="path4502"
         sodipodi:cx="96.786613"
         sodipodi:cy="200.53572"
         sodipodi:rx="25.715183"
         sodipodi:ry="15.892858"
         d="m 122.5018,200.53572 c 0,8.77738 -11.51308,15.89286 -25.715187,15.89286 -14.202103,0 -25.715183,-7.11548 -25.715183,-15.89286 0,-8.77738 11.51308,-15.89286 25.715183,-15.89286 14.202107,0 25.715187,7.11548 25.715187,15.89286 z"
         transform="translate(0,732.36218)" />
      <path
         transform="translate(42.857143,733.43361)"
         d="m 122.5018,200.53572 c 0,8.77738 -11.51308,15.89286 -25.715187,15.89286 -14.202103,0 -25.715183,-7.11548 -25.715183,-15.89286 0,-8.77738 11.51308,-15.89286 25.715183,-15.89286 14.202107,0 25.715187,7.11548 25.715187,15.89286 z"
         sodipodi:ry="15.892858"
         sodipodi:rx="25.715183"
         sodipodi:cy="200.53572"
         sodipodi:cx="96.786613"
         id="path4504"
         style="fill:#00ff00;fill-opacity:1;stroke:none"
         sodipodi:type="arc" />
      <path
         sodipodi:type="arc"
         style="fill:#00ff00;fill-opacity:1;stroke:none"
         id="path4506"
         sodipodi:cx="96.786613"
         sodipodi:cy="200.53572"
         sodipodi:rx="25.715183"
         sodipodi:ry="15.892858"
         d="m 122.5018,200.53572 c 0,8.77738 -11.51308,15.89286 -25.715187,15.89286 -14.202103,0 -25.715183,-7.11548 -25.715183,-15.89286 0,-8.77738 11.51308,-15.89286 25.715183,-15.89286 14.202107,0 25.715187,7.11548 25.715187,15.89286 z"
         transform="translate(16.428572,717.71932)" />
      <path
         transform="translate(30.000001,717.71932)"
         d="m 122.5018,200.53572 c 0,8.77738 -11.51308,15.89286 -25.715187,15.89286 -14.202103,0 -25.715183,-7.11548 -25.715183,-15.89286 0,-8.77738 11.51308,-15.89286 25.715183,-15.89286 14.202107,0 25.715187,7.11548 25.715187,15.89286 z"
         sodipodi:ry="15.892858"
         sodipodi:rx="25.715183"
         sodipodi:cy="200.53572"
         sodipodi:cx="96.786613"
         id="path4508"
         style="fill:#00ff00;fill-opacity:1;stroke:none"
         sodipodi:type="arc" />
      <path
         sodipodi:type="arc"
         style="fill:#00ff00;fill-opacity:1;stroke:none"
         id="path4510"
         sodipodi:cx="96.786613"
         sodipodi:cy="200.53572"
         sodipodi:rx="25.715183"
         sodipodi:ry="15.892858"
         d="m 122.5018,200.53572 c 0,8.77738 -11.51308,15.89286 -25.715187,15.89286 -14.202103,0 -25.715183,-7.11548 -25.715183,-15.89286 0,-8.77738 11.51308,-15.89286 25.715183,-15.89286 14.202107,0 25.715187,7.11548 25.715187,15.89286 z"
         transform="matrix(0.62501309,0,0,1,58.436571,701.64789)" />
    </g>
    <g
       transform="matrix(1.2869433,0,0,2.3287572,107.89087,-1316.5494)"
       style="stroke:none"
       id="g4512">
      <path
         sodipodi:type="arc"
         style="fill:#ffffff;fill-opacity:0.58823529;stroke:none"
         id="path4514"
         sodipodi:cx="123.75"
         sodipodi:cy="168.03572"
         sodipodi:rx="10.535714"
         sodipodi:ry="10.535714"
         d="m 134.28571,168.03572 c 0,5.81872 -4.717,10.53571 -10.53571,10.53571 -5.81871,0 -10.53571,-4.71699 -10.53571,-10.53571 0,-5.81871 4.717,-10.53571 10.53571,-10.53571 5.81871,0 10.53571,4.717 10.53571,10.53571 z"
         transform="translate(-8.5714286,732.00504)" />
      <path
         transform="matrix(0.49152542,0,0,0.49152542,42.566587,827.80407)"
         d="m 134.28571,168.03572 c 0,5.81872 -4.717,10.53571 -10.53571,10.53571 -5.81871,0 -10.53571,-4.71699 -10.53571,-10.53571 0,-5.81871 4.717,-10.53571 10.53571,-10.53571 5.81871,0 10.53571,4.717 10.53571,10.53571 z"
         sodipodi:ry="10.535714"
         sodipodi:rx="10.535714"
         sodipodi:cy="168.03572"
         sodipodi:cx="123.75"
         id="path4516"
         style="fill:#ffffff;fill-opacity:0.58823529;stroke:none"
         sodipodi:type="arc" />
      <path
         sodipodi:type="arc"
         style="fill:#ffffff;fill-opacity:0.58823529;stroke:none"
         id="path4518"
         sodipodi:cx="123.75"
         sodipodi:cy="168.03572"
         sodipodi:rx="10.535714"
         sodipodi:ry="10.535714"
         d="m 134.28571,168.03572 c 0,5.81872 -4.717,10.53571 -10.53571,10.53571 -5.81871,0 -10.53571,-4.71699 -10.53571,-10.53571 0,-5.81871 4.717,-10.53571 10.53571,-10.53571 5.81871,0 10.53571,4.717 10.53571,10.53571 z"
         transform="matrix(0.33898304,0,0,0.33898304,86.97942,854.3295)" />
      <path
         transform="matrix(0.20338982,0,0,0.20338982,86.973367,887.114)"
         d="m 134.28571,168.03572 c 0,5.81872 -4.717,10.53571 -10.53571,10.53571 -5.81871,0 -10.53571,-4.71699 -10.53571,-10.53571 0,-5.81871 4.717,-10.53571 10.53571,-10.53571 5.81871,0 10.53571,4.717 10.53571,10.53571 z"
         sodipodi:ry="10.535714"
         sodipodi:rx="10.535714"
         sodipodi:cy="168.03572"
         sodipodi:cx="123.75"
         id="path4520"
         style="fill:#ffffff;fill-opacity:0.58823529;stroke:none"
         sodipodi:type="arc" />
      <path
         sodipodi:type="arc"
         style="fill:#ffffff;fill-opacity:0.58823529;stroke:none"
         id="path4522"
         sodipodi:cx="123.75"
         sodipodi:cy="168.03572"
         sodipodi:rx="10.535714"
         sodipodi:ry="10.535714"
         d="m 134.28571,168.03572 c 0,5.81872 -4.717,10.53571 -10.53571,10.53571 -5.81871,0 -10.53571,-4.71699 -10.53571,-10.53571 0,-5.81871 4.717,-10.53571 10.53571,-10.53571 5.81871,0 10.53571,4.717 10.53571,10.53571 z"
         transform="matrix(0.20338982,0,0,0.20338982,67.687653,883.54257)" />
    </g>
    <g
       transform="matrix(1.2869433,0,0,2.3287572,106.97163,-1322.3713)"
       id="g4524">
      <path
         sodipodi:type="arc"
         style="fill:#008000;fill-opacity:1;stroke:none"
         id="path4526"
         sodipodi:cx="134.82143"
         sodipodi:cy="240.89285"
         sodipodi:rx="6.25"
         sodipodi:ry="6.25"
         d="m 141.07143,240.89285 c 0,3.45178 -2.79822,6.25 -6.25,6.25 -3.45178,0 -6.25,-2.79822 -6.25,-6.25 0,-3.45178 2.79822,-6.25 6.25,-6.25 3.45178,0 6.25,2.79822 6.25,6.25 z"
         transform="translate(4.6428572,734.50504)" />
      <path
         transform="translate(-34.285714,733.43361)"
         d="m 141.07143,240.89285 c 0,3.45178 -2.79822,6.25 -6.25,6.25 -3.45178,0 -6.25,-2.79822 -6.25,-6.25 0,-3.45178 2.79822,-6.25 6.25,-6.25 3.45178,0 6.25,2.79822 6.25,6.25 z"
         sodipodi:ry="6.25"
         sodipodi:rx="6.25"
         sodipodi:cy="240.89285"
         sodipodi:cx="134.82143"
         id="path4528"
         style="fill:#008000;fill-opacity:1;stroke:none"
         sodipodi:type="arc" />
      <g
         id="g4530"
         style="fill:#008000">
        <path
           transform="matrix(0.54285714,0,0,0.54285714,11.275509,829.27034)"
           d="m 141.07143,240.89285 c 0,3.45178 -2.79822,6.25 -6.25,6.25 -3.45178,0 -6.25,-2.79822 -6.25,-6.25 0,-3.45178 2.79822,-6.25 6.25,-6.25 3.45178,0 6.25,2.79822 6.25,6.25 z"
           sodipodi:ry="6.25"
           sodipodi:rx="6.25"
           sodipodi:cy="240.89285"
           sodipodi:cx="134.82143"
           id="path4532"
           style="fill:#008000;fill-opacity:1;stroke:none"
           sodipodi:type="arc" />
        <path
           sodipodi:type="arc"
           style="fill:#008000;fill-opacity:1;stroke:none"
           id="path4534"
           sodipodi:cx="134.82143"
           sodipodi:cy="240.89285"
           sodipodi:rx="6.25"
           sodipodi:ry="6.25"
           d="m 141.07143,240.89285 c 0,3.45178 -2.79822,6.25 -6.25,6.25 -3.45178,0 -6.25,-2.79822 -6.25,-6.25 0,-3.45178 2.79822,-6.25 6.25,-6.25 3.45178,0 6.25,2.79822 6.25,6.25 z"
           transform="matrix(0.54285714,0,0,0.54285714,76.275509,822.84177)" />
        <path
           transform="matrix(0.54285714,0,0,0.54285714,43.775509,818.9132)"
           d="m 141.07143,240.89285 c 0,3.45178 -2.79822,6.25 -6.25,6.25 -3.45178,0 -6.25,-2.79822 -6.25,-6.25 0,-3.45178 2.79822,-6.25 6.25,-6.25 3.45178,0 6.25,2.79822 6.25,6.25 z"
           sodipodi:ry="6.25"
           sodipodi:rx="6.25"
           sodipodi:cy="240.89285"
           sodipodi:cx="134.82143"
           id="path4536"
           style="fill:#008000;fill-opacity:1;stroke:none"
           sodipodi:type="arc" />
      </g>
    </g>
    <rect
       style="fill:#552200;fill-opacity:1;stroke:none"
       id="rect4538"
       width="17.875032"
       height="46.070141"
       x="426.96857"
       y="1007.8475" />
    <g
       id="g4540"
       transform="matrix(0.68561769,0,0,1.1315474,354.24415,-98.488198)">
      <path
         transform="translate(-16.428571,721.64789)"
         d="m 121.21434,244.28572 c 0,13.94521 -11.30483,25.25003 -25.25003,25.25003 -13.945205,0 -25.250027,-11.30482 -25.250027,-25.25003 0,-13.9452 11.304822,-25.25003 25.250027,-25.25003 13.9452,0 25.25003,11.30483 25.25003,25.25003 z"
         sodipodi:ry="25.250027"
         sodipodi:rx="25.250027"
         sodipodi:cy="244.28572"
         sodipodi:cx="95.96431"
         id="path4542"
         style="fill:#008000;fill-opacity:1;stroke:none"
         sodipodi:type="arc" />
      <path
         sodipodi:type="arc"
         style="fill:#008000;fill-opacity:1;stroke:none"
         id="path4544"
         sodipodi:cx="95.96431"
         sodipodi:cy="244.28572"
         sodipodi:rx="25.250027"
         sodipodi:ry="25.250027"
         d="m 121.21434,244.28572 c 0,13.94521 -11.30483,25.25003 -25.25003,25.25003 -13.945205,0 -25.250027,-11.30482 -25.250027,-25.25003 0,-13.9452 11.304822,-25.25003 25.250027,-25.25003 13.9452,0 25.25003,11.30483 25.25003,25.25003 z"
         transform="translate(60.714286,720.9336)" />
      <path
         transform="translate(24.285715,720.21931)"
         d="m 121.21434,244.28572 c 0,13.94521 -11.30483,25.25003 -25.25003,25.25003 -13.945205,0 -25.250027,-11.30482 -25.250027,-25.25003 0,-13.9452 11.304822,-25.25003 25.250027,-25.25003 13.9452,0 25.25003,11.30483 25.25003,25.25003 z"
         sodipodi:ry="25.250027"
         sodipodi:rx="25.250027"
         sodipodi:cy="244.28572"
         sodipodi:cx="95.96431"
         id="path4546"
         style="fill:#008000;fill-opacity:1;stroke:none"
         sodipodi:type="arc" />
    </g>
    <g
       id="g4548"
       transform="matrix(0.68561769,0,0,1.1315474,354.24415,-98.488198)">
      <g
         style="fill:#00ff00"
         transform="matrix(1,0,0,0.82118316,0,167.95461)"
         id="g4550">
        <path
           transform="translate(-16.428571,721.64789)"
           d="m 121.21434,244.28572 c 0,13.94521 -11.30483,25.25003 -25.25003,25.25003 -13.945205,0 -25.250027,-11.30482 -25.250027,-25.25003 0,-13.9452 11.304822,-25.25003 25.250027,-25.25003 13.9452,0 25.25003,11.30483 25.25003,25.25003 z"
           sodipodi:ry="25.250027"
           sodipodi:rx="25.250027"
           sodipodi:cy="244.28572"
           sodipodi:cx="95.96431"
           id="path4552"
           style="fill:#00ff00;fill-opacity:1;stroke:none"
           sodipodi:type="arc" />
        <path
           sodipodi:type="arc"
           style="fill:#00ff00;fill-opacity:1;stroke:none"
           id="path4554"
           sodipodi:cx="95.96431"
           sodipodi:cy="244.28572"
           sodipodi:rx="25.250027"
           sodipodi:ry="25.250027"
           d="m 121.21434,244.28572 c 0,13.94521 -11.30483,25.25003 -25.25003,25.25003 -13.945205,0 -25.250027,-11.30482 -25.250027,-25.25003 0,-13.9452 11.304822,-25.25003 25.250027,-25.25003 13.9452,0 25.25003,11.30483 25.25003,25.25003 z"
           transform="translate(60.714286,720.9336)" />
        <path
           transform="translate(24.285715,720.21931)"
           d="m 121.21434,244.28572 c 0,13.94521 -11.30483,25.25003 -25.25003,25.25003 -13.945205,0 -25.250027,-11.30482 -25.250027,-25.25003 0,-13.9452 11.304822,-25.25003 25.250027,-25.25003 13.9452,0 25.25003,11.30483 25.25003,25.25003 z"
           sodipodi:ry="25.250027"
           sodipodi:rx="25.250027"
           sodipodi:cy="244.28572"
           sodipodi:cx="95.96431"
           id="path4556"
           style="fill:#00ff00;fill-opacity:1;stroke:none"
           sodipodi:type="arc" />
      </g>
      <path
         transform="translate(0,732.36218)"
         d="m 122.5018,200.53572 c 0,8.77738 -11.51308,15.89286 -25.715187,15.89286 -14.202103,0 -25.715183,-7.11548 -25.715183,-15.89286 0,-8.77738 11.51308,-15.89286 25.715183,-15.89286 14.202107,0 25.715187,7.11548 25.715187,15.89286 z"
         sodipodi:ry="15.892858"
         sodipodi:rx="25.715183"
         sodipodi:cy="200.53572"
         sodipodi:cx="96.786613"
         id="path4558"
         style="fill:#00ff00;fill-opacity:1;stroke:none"
         sodipodi:type="arc" />
      <path
         sodipodi:type="arc"
         style="fill:#00ff00;fill-opacity:1;stroke:none"
         id="path4560"
         sodipodi:cx="96.786613"
         sodipodi:cy="200.53572"
         sodipodi:rx="25.715183"
         sodipodi:ry="15.892858"
         d="m 122.5018,200.53572 c 0,8.77738 -11.51308,15.89286 -25.715187,15.89286 -14.202103,0 -25.715183,-7.11548 -25.715183,-15.89286 0,-8.77738 11.51308,-15.89286 25.715183,-15.89286 14.202107,0 25.715187,7.11548 25.715187,15.89286 z"
         transform="translate(42.857143,733.43361)" />
      <path
         transform="translate(16.428572,717.71932)"
         d="m 122.5018,200.53572 c 0,8.77738 -11.51308,15.89286 -25.715187,15.89286 -14.202103,0 -25.715183,-7.11548 -25.715183,-15.89286 0,-8.77738 11.51308,-15.89286 25.715183,-15.89286 14.202107,0 25.715187,7.11548 25.715187,15.89286 z"
         sodipodi:ry="15.892858"
         sodipodi:rx="25.715183"
         sodipodi:cy="200.53572"
         sodipodi:cx="96.786613"
         id="path4562"
         style="fill:#00ff00;fill-opacity:1;stroke:none"
         sodipodi:type="arc" />
      <path
         sodipodi:type="arc"
         style="fill:#00ff00;fill-opacity:1;stroke:none"
         id="path4564"
         sodipodi:cx="96.786613"
         sodipodi:cy="200.53572"
         sodipodi:rx="25.715183"
         sodipodi:ry="15.892858"
         d="m 122.5018,200.53572 c 0,8.77738 -11.51308,15.89286 -25.715187,15.89286 -14.202103,0 -25.715183,-7.11548 -25.715183,-15.89286 0,-8.77738 11.51308,-15.89286 25.715183,-15.89286 14.202107,0 25.715187,7.11548 25.715187,15.89286 z"
         transform="translate(30.000001,717.71932)" />
      <path
         transform="matrix(0.62501309,0,0,1,58.436571,701.64789)"
         d="m 122.5018,200.53572 c 0,8.77738 -11.51308,15.89286 -25.715187,15.89286 -14.202103,0 -25.715183,-7.11548 -25.715183,-15.89286 0,-8.77738 11.51308,-15.89286 25.715183,-15.89286 14.202107,0 25.715187,7.11548 25.715187,15.89286 z"
         sodipodi:ry="15.892858"
         sodipodi:rx="25.715183"
         sodipodi:cy="200.53572"
         sodipodi:cx="96.786613"
         id="path4566"
         style="fill:#00ff00;fill-opacity:1;stroke:none"
         sodipodi:type="arc" />
    </g>
    <g
       id="g4568"
       style="stroke:none"
       transform="matrix(0.68561769,0,0,1.1315474,354.24414,-96.871706)">
      <path
         transform="translate(-8.5714286,732.00504)"
         d="m 134.28571,168.03572 c 0,5.81872 -4.717,10.53571 -10.53571,10.53571 -5.81871,0 -10.53571,-4.71699 -10.53571,-10.53571 0,-5.81871 4.717,-10.53571 10.53571,-10.53571 5.81871,0 10.53571,4.717 10.53571,10.53571 z"
         sodipodi:ry="10.535714"
         sodipodi:rx="10.535714"
         sodipodi:cy="168.03572"
         sodipodi:cx="123.75"
         id="path4570"
         style="fill:#ffffff;fill-opacity:0.58823529;stroke:none"
         sodipodi:type="arc" />
      <path
         sodipodi:type="arc"
         style="fill:#ffffff;fill-opacity:0.58823529;stroke:none"
         id="path4572"
         sodipodi:cx="123.75"
         sodipodi:cy="168.03572"
         sodipodi:rx="10.535714"
         sodipodi:ry="10.535714"
         d="m 134.28571,168.03572 c 0,5.81872 -4.717,10.53571 -10.53571,10.53571 -5.81871,0 -10.53571,-4.71699 -10.53571,-10.53571 0,-5.81871 4.717,-10.53571 10.53571,-10.53571 5.81871,0 10.53571,4.717 10.53571,10.53571 z"
         transform="matrix(0.49152542,0,0,0.49152542,42.566587,827.80407)" />
      <path
         transform="matrix(0.33898304,0,0,0.33898304,86.97942,854.3295)"
         d="m 134.28571,168.03572 c 0,5.81872 -4.717,10.53571 -10.53571,10.53571 -5.81871,0 -10.53571,-4.71699 -10.53571,-10.53571 0,-5.81871 4.717,-10.53571 10.53571,-10.53571 5.81871,0 10.53571,4.717 10.53571,10.53571 z"
         sodipodi:ry="10.535714"
         sodipodi:rx="10.535714"
         sodipodi:cy="168.03572"
         sodipodi:cx="123.75"
         id="path4574"
         style="fill:#ffffff;fill-opacity:0.58823529;stroke:none"
         sodipodi:type="arc" />
      <path
         sodipodi:type="arc"
         style="fill:#ffffff;fill-opacity:0.58823529;stroke:none"
         id="path4576"
         sodipodi:cx="123.75"
         sodipodi:cy="168.03572"
         sodipodi:rx="10.535714"
         sodipodi:ry="10.535714"
         d="m 134.28571,168.03572 c 0,5.81872 -4.717,10.53571 -10.53571,10.53571 -5.81871,0 -10.53571,-4.71699 -10.53571,-10.53571 0,-5.81871 4.717,-10.53571 10.53571,-10.53571 5.81871,0 10.53571,4.717 10.53571,10.53571 z"
         transform="matrix(0.20338982,0,0,0.20338982,86.973367,887.114)" />
      <path
         transform="matrix(0.20338982,0,0,0.20338982,67.687653,883.54257)"
         d="m 134.28571,168.03572 c 0,5.81872 -4.717,10.53571 -10.53571,10.53571 -5.81871,0 -10.53571,-4.71699 -10.53571,-10.53571 0,-5.81871 4.717,-10.53571 10.53571,-10.53571 5.81871,0 10.53571,4.717 10.53571,10.53571 z"
         sodipodi:ry="10.535714"
         sodipodi:rx="10.535714"
         sodipodi:cy="168.03572"
         sodipodi:cx="123.75"
         id="path4578"
         style="fill:#ffffff;fill-opacity:0.58823529;stroke:none"
         sodipodi:type="arc" />
    </g>
    <g
       id="g4580"
       transform="matrix(0.68561769,0,0,1.1315474,353.75442,-99.700571)">
      <path
         transform="translate(4.6428572,734.50504)"
         d="m 141.07143,240.89285 c 0,3.45178 -2.79822,6.25 -6.25,6.25 -3.45178,0 -6.25,-2.79822 -6.25,-6.25 0,-3.45178 2.79822,-6.25 6.25,-6.25 3.45178,0 6.25,2.79822 6.25,6.25 z"
         sodipodi:ry="6.25"
         sodipodi:rx="6.25"
         sodipodi:cy="240.89285"
         sodipodi:cx="134.82143"
         id="path4582"
         style="fill:#008000;fill-opacity:1;stroke:none"
         sodipodi:type="arc" />
      <path
         sodipodi:type="arc"
         style="fill:#008000;fill-opacity:1;stroke:none"
         id="path4584"
         sodipodi:cx="134.82143"
         sodipodi:cy="240.89285"
         sodipodi:rx="6.25"
         sodipodi:ry="6.25"
         d="m 141.07143,240.89285 c 0,3.45178 -2.79822,6.25 -6.25,6.25 -3.45178,0 -6.25,-2.79822 -6.25,-6.25 0,-3.45178 2.79822,-6.25 6.25,-6.25 3.45178,0 6.25,2.79822 6.25,6.25 z"
         transform="translate(-34.285714,733.43361)" />
      <g
         style="fill:#008000"
         id="g4586">
        <path
           sodipodi:type="arc"
           style="fill:#008000;fill-opacity:1;stroke:none"
           id="path4588"
           sodipodi:cx="134.82143"
           sodipodi:cy="240.89285"
           sodipodi:rx="6.25"
           sodipodi:ry="6.25"
           d="m 141.07143,240.89285 c 0,3.45178 -2.79822,6.25 -6.25,6.25 -3.45178,0 -6.25,-2.79822 -6.25,-6.25 0,-3.45178 2.79822,-6.25 6.25,-6.25 3.45178,0 6.25,2.79822 6.25,6.25 z"
           transform="matrix(0.54285714,0,0,0.54285714,11.275509,829.27034)" />
        <path
           transform="matrix(0.54285714,0,0,0.54285714,76.275509,822.84177)"
           d="m 141.07143,240.89285 c 0,3.45178 -2.79822,6.25 -6.25,6.25 -3.45178,0 -6.25,-2.79822 -6.25,-6.25 0,-3.45178 2.79822,-6.25 6.25,-6.25 3.45178,0 6.25,2.79822 6.25,6.25 z"
           sodipodi:ry="6.25"
           sodipodi:rx="6.25"
           sodipodi:cy="240.89285"
           sodipodi:cx="134.82143"
           id="path4590"
           style="fill:#008000;fill-opacity:1;stroke:none"
           sodipodi:type="arc" />
        <path
           sodipodi:type="arc"
           style="fill:#008000;fill-opacity:1;stroke:none"
           id="path4592"
           sodipodi:cx="134.82143"
           sodipodi:cy="240.89285"
           sodipodi:rx="6.25"
           sodipodi:ry="6.25"
           d="m 141.07143,240.89285 c 0,3.45178 -2.79822,6.25 -6.25,6.25 -3.45178,0 -6.25,-2.79822 -6.25,-6.25 0,-3.45178 2.79822,-6.25 6.25,-6.25 3.45178,0 6.25,2.79822 6.25,6.25 z"
           transform="matrix(0.54285714,0,0,0.54285714,43.775509,818.9132)" />
      </g>
    </g>
  </g>
</svg>
